<?xml version="1.0" encoding="utf-8"?>
<!-- Generator: Adobe Illustrator 16.0.0, SVG Export Plug-In . SVG Version: 6.00 Build 0)  -->
<!DOCTYPE svg PUBLIC "-//W3C//DTD SVG 1.1//EN" "http://www.w3.org/Graphics/SVG/1.1/DTD/svg11.dtd">
<svg version="1.1" id="icon" xmlns="http://www.w3.org/2000/svg" xmlns:xlink="http://www.w3.org/1999/xlink" x="0px" y="0px"
	 width="70.09px" height="40px" viewBox="0 0 70.09 40" enable-background="new 0 0 70.09 40" xml:space="preserve">
<g>
	<circle opacity="0.7" fill="#607683" enable-background="new    " cx="57.276" cy="9.343" r="3.466"/>
	<path opacity="0.7" fill="#607683" enable-background="new    " d="M52.955,10.719l-0.169-0.737l-5.457,1.242
		c-0.356-0.791-1.147-1.34-2.067-1.34c-1.26,0.002-2.278,1.018-2.278,2.275c0,1.26,1.019,2.275,2.275,2.275
		c1.255,0,2.275-1.016,2.275-2.275c0-0.066-0.002-0.135-0.01-0.203L52.955,10.719z"/>
	<path opacity="0.7" fill="#607683" enable-background="new    " d="M53.858,6.465l-2.649-2.095c0.093-0.254,0.146-0.52,0.146-0.803
		c0-1.255-1.016-2.276-2.275-2.276c-1.257,0-2.271,1.018-2.271,2.276c0,1.257,1.016,2.275,2.271,2.275
		c0.701,0,1.321-0.317,1.736-0.813l2.568,2.034L53.858,6.465z"/>
	<path opacity="0.7" fill="#607683" enable-background="new    " d="M65.321,2.163c-1.255,0-2.273,1.013-2.273,2.273
		c0,0.32,0.066,0.623,0.184,0.898l-2.72,1.428l0.354,0.674l2.786-1.462c0.412,0.454,1.011,0.735,1.67,0.735
		c1.255,0,2.275-1.016,2.275-2.273C67.597,3.176,66.574,2.163,65.321,2.163z"/>
	<path opacity="0.7" fill="#607683" enable-background="new    " d="M67.81,13.929c-0.669,0-1.263,0.286-1.68,0.745L61.002,11.3
		l-0.415,0.632l5.135,3.38c-0.114,0.271-0.181,0.576-0.181,0.886c0,1.26,1.016,2.278,2.273,2.278c1.257,0,2.275-1.019,2.275-2.278
		C70.09,14.942,69.069,13.929,67.81,13.929z"/>
	<path opacity="0.7" fill="#607683" enable-background="new    " d="M53.079,20.707l2.728-7.374l-0.711-0.266l-2.725,7.366
		c-0.142-0.027-0.29-0.042-0.439-0.042c-1.255,0-2.272,1.014-2.272,2.269c0,1.257,1.018,2.275,2.272,2.275s2.275-1.016,2.275-2.275
		C54.207,21.83,53.751,21.1,53.079,20.707z"/>
</g>
<g>
	<path opacity="0.7" fill="#176699" enable-background="new    " d="M24.181,7.754c3.238,0,5.862,2.625,5.862,5.862
		c0,3.235-2.624,5.86-5.862,5.86c-3.234,0-5.859-2.625-5.859-5.86C18.321,10.379,20.946,7.754,24.181,7.754z"/>
	<path opacity="0.7" fill="#176699" enable-background="new    " d="M16.869,15.943l-0.281-1.25l-9.234,2.103
		c-0.601-1.336-1.946-2.269-3.501-2.269C1.721,14.529,0,16.256,0,18.378c0,2.129,1.721,3.853,3.851,3.853
		c2.126,0,3.848-1.724,3.848-3.853c0-0.112-0.005-0.225-0.017-0.342L16.869,15.943z"/>
	<path opacity="0.7" fill="#176699" enable-background="new    " d="M18.402,8.751l-4.483-3.548
		c0.156-0.422,0.247-0.879,0.247-1.355C14.166,1.721,12.447,0,10.318,0C8.191,0,6.473,1.719,6.473,3.848
		c0,2.127,1.721,3.848,3.845,3.848c1.184,0,2.237-0.535,2.94-1.372l4.344,3.433L18.402,8.751z"/>
	<path opacity="0.7" fill="#176699" enable-background="new    " d="M37.798,1.467c-2.124,0-3.848,1.719-3.848,3.848
		c0,0.542,0.114,1.057,0.313,1.521l-4.605,2.419l0.596,1.138l4.718-2.476c0.7,0.765,1.706,1.245,2.827,1.245
		c2.127,0,3.848-1.721,3.848-3.848C41.641,3.186,39.915,1.467,37.798,1.467z"/>
	<path opacity="0.7" fill="#176699" enable-background="new    " d="M42.005,21.371c-1.133,0-2.139,0.488-2.845,1.26l-8.675-5.703
		l-0.701,1.071l8.689,5.711c-0.197,0.467-0.305,0.979-0.305,1.507c0,2.126,1.719,3.853,3.846,3.853c2.126,0,3.848-1.727,3.848-3.853
		C45.859,23.09,44.134,21.371,42.005,21.371z"/>
	<path opacity="0.7" fill="#176699" enable-background="new    " d="M17.081,32.837l4.617-12.475l-1.206-0.446l-4.61,12.462
		c-0.241-0.047-0.488-0.068-0.742-0.068c-2.126,0-3.845,1.719-3.845,3.843c0,2.121,1.719,3.848,3.845,3.848
		c2.125,0,3.851-1.722,3.851-3.848C18.99,34.738,18.222,33.503,17.081,32.837z"/>
</g>
</svg>
