<?xml version="1.0" encoding="utf-8"?>
<!-- Generator: Adobe Illustrator 16.0.0, SVG Export Plug-In . SVG Version: 6.00 Build 0)  -->
<!DOCTYPE svg PUBLIC "-//W3C//DTD SVG 1.1//EN" "http://www.w3.org/Graphics/SVG/1.1/DTD/svg11.dtd">
<svg version="1.1" id="icon" xmlns="http://www.w3.org/2000/svg" xmlns:xlink="http://www.w3.org/1999/xlink" x="0px" y="0px"
	 width="45.855px" height="40px" viewBox="0 0 45.855 40" enable-background="new 0 0 45.855 40" xml:space="preserve">
<g>
	<circle opacity="0.7" fill="#176699" enable-background="new    " cx="24.179" cy="13.616" r="5.861"/>
	<path opacity="0.7" fill="#176699" enable-background="new    " d="M16.869,15.943l-0.283-1.25l-9.233,2.102
		c-0.6-1.334-1.945-2.267-3.5-2.267C1.72,14.531,0,16.255,0,18.378c0,2.126,1.72,3.853,3.85,3.853c2.125,0,3.848-1.727,3.848-3.853
		c0-0.112-0.005-0.225-0.018-0.342L16.869,15.943z"/>
	<path opacity="0.7" fill="#176699" enable-background="new    " d="M18.4,8.75l-4.482-3.548c0.157-0.423,0.248-0.877,0.248-1.355
		c0-2.125-1.72-3.848-3.848-3.848S6.472,1.72,6.472,3.848c0,2.128,1.72,3.847,3.846,3.847c1.183,0,2.235-0.535,2.937-1.372
		l4.347,3.435L18.4,8.75z"/>
	<path opacity="0.7" fill="#176699" enable-background="new    " d="M37.792,1.467c-2.124,0-3.848,1.72-3.848,3.848
		c0,0.542,0.117,1.057,0.313,1.522l-4.604,2.417l0.596,1.138l4.717-2.475c0.701,0.766,1.709,1.245,2.827,1.245
		c2.125,0,3.849-1.72,3.849-3.848C41.638,3.188,39.912,1.467,37.792,1.467z"/>
	<path opacity="0.7" fill="#176699" enable-background="new    " d="M42.002,21.372c-1.133,0-2.14,0.488-2.843,1.26l-8.677-5.703
		l-0.703,1.069l8.689,5.713c-0.198,0.464-0.306,0.977-0.306,1.504c0,2.127,1.719,3.853,3.844,3.853c2.129,0,3.848-1.726,3.848-3.853
		C45.855,23.09,44.131,21.372,42.002,21.372z"/>
	<path opacity="0.7" fill="#176699" enable-background="new    " d="M17.081,32.836l4.614-12.474l-1.205-0.446L15.88,32.377
		c-0.24-0.044-0.488-0.068-0.742-0.068c-2.125,0-3.845,1.719-3.845,3.843S13.013,40,15.138,40c2.124,0,3.85-1.719,3.85-3.848
		C18.988,34.739,18.218,33.503,17.081,32.836z"/>
</g>
</svg>
