<?xml version="1.0" encoding="utf-8"?>
<!-- Generator: Adobe Illustrator 16.0.0, SVG Export Plug-In . SVG Version: 6.00 Build 0)  -->
<!DOCTYPE svg PUBLIC "-//W3C//DTD SVG 1.1//EN" "http://www.w3.org/Graphics/SVG/1.1/DTD/svg11.dtd">
<svg version="1.1" id="artifact_n_node" xmlns="http://www.w3.org/2000/svg" xmlns:xlink="http://www.w3.org/1999/xlink"
	 x="0px" y="0px" width="85.644px" height="19.857px" viewBox="-27.204 1 85.644 19.857"
	 enable-background="new -27.204 1 85.644 19.857" xml:space="preserve">
<path fill="#FFFFFF" d="M58.44,10.93c0,5.483-5.53,9.928-12.353,9.928h-60.938c-6.823,0-12.353-4.444-12.353-9.928l0,0
	C-27.203,5.445-21.672,1-14.851,1h60.938C52.91,1,58.44,5.445,58.44,10.93L58.44,10.93z"/>
<g>
	<path fill="#5E6D68" d="M9.243,12.449h-2.27l-0.688,1.266H5.074l3.238-5.726h1.309l0.93,5.726H9.434L9.243,12.449z M9.098,11.497
		L8.766,9.192l-1.383,2.305H9.098z"/>
	<path fill="#5E6D68" d="M12.473,13.715h-1.18l1.199-5.726h2.543c0.438,0,0.778,0.045,1.021,0.135c0.243,0.09,0.44,0.255,0.59,0.494
		c0.15,0.239,0.225,0.53,0.225,0.871c0,0.487-0.146,0.889-0.438,1.204c-0.292,0.316-0.733,0.514-1.324,0.589
		c0.151,0.136,0.293,0.313,0.426,0.534c0.263,0.449,0.556,1.082,0.879,1.898h-1.266c-0.102-0.322-0.301-0.826-0.598-1.512
		c-0.162-0.37-0.333-0.618-0.516-0.746c-0.112-0.075-0.307-0.113-0.586-0.113h-0.48L12.473,13.715z M13.149,10.485h0.625
		c0.633,0,1.053-0.038,1.26-0.113s0.369-0.194,0.486-0.355c0.117-0.161,0.176-0.331,0.176-0.508c0-0.208-0.084-0.364-0.254-0.469
		c-0.104-0.063-0.33-0.094-0.676-0.094h-1.297L13.149,10.485z"/>
	<path fill="#5E6D68" d="M19.395,13.715h-1.18l1-4.769h-1.68l0.199-0.957h4.512l-0.199,0.957h-1.655L19.395,13.715z"/>
	<path fill="#5E6D68" d="M21.739,13.715l1.199-5.726h1.176l-1.194,5.726H21.739z"/>
	<path fill="#5E6D68" d="M23.998,13.715l1.198-5.726h4.007L29,8.946h-2.828l-0.289,1.375h2.773l-0.199,0.957h-2.772l-0.507,2.438
		H23.998z"/>
	<path fill="#5E6D68" d="M32.208,12.449h-2.271l-0.688,1.266h-1.209l3.237-5.726h1.31l0.93,5.726H32.4L32.208,12.449z
		 M32.063,11.497l-0.332-2.305l-1.383,2.305H32.063z"/>
	<path fill="#5E6D68" d="M38.382,11.652l1.188,0.181c-0.229,0.644-0.577,1.134-1.043,1.474c-0.463,0.34-1.006,0.51-1.629,0.51
		c-0.698,0-1.248-0.211-1.644-0.633c-0.395-0.422-0.592-1.033-0.592-1.834c0-0.651,0.133-1.248,0.396-1.788
		c0.266-0.54,0.631-0.954,1.1-1.24c0.469-0.286,0.98-0.43,1.531-0.43c0.621,0,1.121,0.166,1.504,0.498s0.609,0.784,0.676,1.357
		l-1.129,0.109c-0.063-0.333-0.182-0.575-0.361-0.725c-0.178-0.149-0.416-0.225-0.713-0.225c-0.324,0-0.629,0.099-0.912,0.297
		c-0.28,0.198-0.508,0.507-0.678,0.928c-0.168,0.421-0.254,0.842-0.254,1.26c0,0.459,0.111,0.813,0.33,1.063
		c0.221,0.25,0.494,0.375,0.822,0.375c0.305,0,0.584-0.098,0.838-0.297C38.069,12.334,38.257,12.041,38.382,11.652z"/>
	<path fill="#5E6D68" d="M42.503,13.715h-1.18l1-4.769h-1.68l0.199-0.957h4.512l-0.199,0.957H43.5L42.503,13.715z"/>
</g>
<g>
	<circle opacity="0.7" fill="#617785" enable-background="new    " cx="-1.004" cy="7.22" r="1.386"/>
	<path opacity="0.7" fill="#617785" enable-background="new    " d="M-2.733,7.77L-2.8,7.475l-2.183,0.497
		C-5.125,7.656-5.442,7.436-5.81,7.436c-0.504,0.001-0.911,0.408-0.911,0.91c0,0.504,0.407,0.911,0.91,0.911
		c0.502,0,0.91-0.407,0.91-0.911c0-0.026-0.001-0.053-0.004-0.081L-2.733,7.77z"/>
	<path opacity="0.7" fill="#617785" enable-background="new    " d="M-2.371,6.069l-1.06-0.838c0.037-0.101,0.059-0.208,0.059-0.321
		c0-0.502-0.407-0.91-0.91-0.91s-0.909,0.407-0.909,0.91s0.407,0.91,0.909,0.91c0.28,0,0.528-0.127,0.694-0.325l1.027,0.813
		L-2.371,6.069z"/>
	<path opacity="0.7" fill="#617785" enable-background="new    " d="M2.214,4.348c-0.502,0-0.91,0.406-0.91,0.91
		c0,0.128,0.027,0.249,0.074,0.359L0.29,6.188l0.141,0.27l1.115-0.585C1.711,6.054,1.95,6.167,2.214,6.167
		c0.502,0,0.91-0.406,0.91-0.909C3.124,4.754,2.715,4.348,2.214,4.348z"/>
	<path opacity="0.7" fill="#617785" enable-background="new    " d="M3.209,9.054c-0.268,0-0.505,0.115-0.672,0.298L0.486,8.003
		L0.32,8.256l2.054,1.351C2.328,9.716,2.302,9.838,2.302,9.962c0,0.504,0.406,0.911,0.909,0.911c0.503,0,0.91-0.407,0.91-0.911
		C4.121,9.46,3.713,9.054,3.209,9.054z"/>
	<path opacity="0.7" fill="#617785" enable-background="new    " d="M-2.683,11.765l1.091-2.949L-1.876,8.71l-1.09,2.946
		c-0.057-0.011-0.116-0.017-0.176-0.017c-0.502,0-0.909,0.406-0.909,0.908c0,0.503,0.407,0.91,0.909,0.91s0.91-0.406,0.91-0.91
		C-2.232,12.215-2.414,11.923-2.683,11.765z"/>
</g>
<g>
	<circle opacity="0.7" fill="#136AA1" enable-background="new    " cx="-14.241" cy="8.929" r="2.344"/>
	<path opacity="0.7" fill="#136AA1" enable-background="new    " d="M-17.166,9.86l-0.113-0.5l-3.693,0.841
		c-0.24-0.534-0.778-0.907-1.4-0.907c-0.853,0.001-1.541,0.691-1.541,1.54c0,0.851,0.688,1.541,1.54,1.541
		c0.85,0,1.539-0.69,1.539-1.541c0-0.045-0.002-0.09-0.007-0.137L-17.166,9.86z"/>
	<path opacity="0.7" fill="#136AA1" enable-background="new    " d="M-16.553,6.983l-1.793-1.419
		c0.063-0.169,0.099-0.351,0.099-0.542c0-0.85-0.688-1.539-1.539-1.539s-1.538,0.688-1.538,1.539s0.688,1.539,1.538,1.539
		c0.473,0,0.894-0.214,1.175-0.549l1.738,1.374L-16.553,6.983z"/>
	<path opacity="0.7" fill="#136AA1" enable-background="new    " d="M-8.795,4.07c-0.85,0-1.539,0.688-1.539,1.539
		c0,0.217,0.046,0.423,0.125,0.609l-1.842,0.967l0.238,0.455l1.887-0.99c0.28,0.306,0.683,0.498,1.131,0.498
		c0.85,0,1.539-0.688,1.539-1.539C-7.258,4.758-7.948,4.07-8.795,4.07z"/>
	<path opacity="0.7" fill="#136AA1" enable-background="new    " d="M-7.113,12.031c-0.453,0-0.855,0.195-1.137,0.504l-3.47-2.281
		L-12,10.682l3.475,2.285c-0.079,0.186-0.122,0.391-0.122,0.602c0,0.851,0.688,1.541,1.538,1.541c0.851,0,1.539-0.69,1.539-1.541
		C-5.571,12.719-6.261,12.031-7.113,12.031z"/>
	<path opacity="0.7" fill="#136AA1" enable-background="new    " d="M-17.081,16.617l1.846-4.989l-0.482-0.179l-1.844,4.984
		c-0.096-0.018-0.195-0.027-0.297-0.027c-0.85,0-1.538,0.688-1.538,1.537s0.688,1.539,1.538,1.539c0.85,0,1.54-0.688,1.54-1.539
		C-16.318,17.378-16.625,16.884-17.081,16.617z"/>
</g>
<g>
	<path fill="#5E6D68" d="M47.366,8.837l0.225-0.693c0.518,0.182,0.894,0.34,1.128,0.474c-0.062-0.589-0.095-0.995-0.098-1.216h0.708
		c-0.01,0.322-0.047,0.726-0.112,1.211c0.335-0.169,0.72-0.326,1.152-0.469l0.225,0.693c-0.413,0.137-0.818,0.228-1.216,0.273
		c0.198,0.172,0.479,0.48,0.84,0.923l-0.586,0.415c-0.188-0.257-0.412-0.607-0.669-1.05c-0.241,0.459-0.452,0.809-0.635,1.05
		l-0.576-0.415c0.378-0.465,0.647-0.773,0.811-0.923C48.142,9.029,47.744,8.938,47.366,8.837z"/>
</g>
</svg>
