<?xml version="1.0" encoding="utf-8"?>
<!-- Generator: Adobe Illustrator 16.0.0, SVG Export Plug-In . SVG Version: 6.00 Build 0)  -->
<!DOCTYPE svg PUBLIC "-//W3C//DTD SVG 1.1//EN" "http://www.w3.org/Graphics/SVG/1.1/DTD/svg11.dtd">
<svg version="1.1" id="key_node" xmlns="http://www.w3.org/2000/svg" xmlns:xlink="http://www.w3.org/1999/xlink" x="0px" y="0px"
	 width="38.291px" height="21px" viewBox="1.049 1.065 38.291 21" enable-background="new 1.049 1.065 38.291 21"
	 xml:space="preserve">
<path fill="#FFFFFF" d="M41.34,12.295c0,6.204-2.792,11.231-6.238,11.231H4.326c-3.445,0-6.238-5.027-6.238-11.231l0,0
	c0-6.202,2.793-11.23,6.238-11.23h30.776C38.548,1.065,41.34,6.093,41.34,12.295L41.34,12.295z"/>
<g id="Page-1" opacity="0.7">
	<g id="icon-24-key">
		<path id="key" fill="#136AA1" stroke="#006699" stroke-width="0.5" stroke-miterlimit="10" d="M11.907,13.563l-2.625,2.699
			l-1.758,0.027l0.025,1.755l-1.761,0.028l0.026,1.761l-2.938,0.041l-0.042-2.935l6.095-6.269C8.718,10.13,8.604,9.546,8.596,8.932
			c-0.042-2.754,2.162-5.021,4.916-5.058c2.755-0.037,5.02,2.164,5.06,4.92c0.037,2.756-2.167,5.02-4.92,5.059
			C13.041,13.859,12.453,13.759,11.907,13.563L11.907,13.563L11.907,13.563z M16.788,7.351c-0.012-0.974-0.811-1.75-1.786-1.737
			c-0.972,0.013-1.748,0.813-1.734,1.787c0.013,0.971,0.813,1.75,1.785,1.736C16.027,9.122,16.803,8.322,16.788,7.351L16.788,7.351z
			"/>
	</g>
</g>
<g>
	<path fill="#5F6D68" d="M22.268,14.363l1.193-5.727h1.182l-0.51,2.434l2.648-2.434h1.578l-2.57,2.246l1.889,3.48h-1.332
		l-1.414-2.728l-1.113,0.974l-0.367,1.754H22.268L22.268,14.363z"/>
	<path fill="#5F6D68" d="M28.057,14.363l1.193-5.727h4.246l-0.199,0.957h-3.064l-0.273,1.301h2.965l-0.199,0.957H29.76L29.4,13.406
		h3.332l-0.203,0.957H28.057z"/>
	<path fill="#5F6D68" d="M36.27,14.363h-1.176l0.465-2.229L33.98,8.638h1.254l0.711,1.617c0.17,0.388,0.283,0.668,0.34,0.84
		c0.098-0.169,0.209-0.349,0.336-0.539l0.543-0.758l0.809-1.16h1.367l-2.625,3.604L36.27,14.363z"/>
</g>
</svg>
