<?xml version="1.0" encoding="utf-8"?>
<!-- Generator: Adobe Illustrator 16.0.0, SVG Export Plug-In . SVG Version: 6.00 Build 0)  -->
<!DOCTYPE svg PUBLIC "-//W3C//DTD SVG 1.1//EN" "http://www.w3.org/Graphics/SVG/1.1/DTD/svg11.dtd">
<svg version="1.1" id="icon" xmlns="http://www.w3.org/2000/svg" xmlns:xlink="http://www.w3.org/1999/xlink" x="0px" y="0px"
	 width="39.847px" height="40.504px" viewBox="0 0 39.847 40.504" enable-background="new 0 0 39.847 40.504" xml:space="preserve">
<g id="Page-1" opacity="0.7">
	<g id="icon-24-key">
		<path id="key" fill="#176699" stroke="#0B6291" stroke-width="0.5" stroke-miterlimit="10" d="M22.935,24.472l-6.563,6.748
			l-4.396,0.068l0.063,4.387l-4.401,0.07l0.064,4.401L0.356,40.25l-0.105-7.337L15.489,17.24c-0.528-1.35-0.813-2.81-0.832-4.344
			C14.552,6.01,20.061,0.344,26.944,0.251c6.891-0.093,12.552,5.411,12.651,12.3c0.093,6.889-5.419,12.55-12.299,12.648
			C25.769,25.214,24.298,24.962,22.935,24.472L22.935,24.472L22.935,24.472z M35.136,8.943c-0.032-2.435-2.028-4.375-4.465-4.342
			c-2.433,0.032-4.37,2.031-4.336,4.466c0.034,2.428,2.033,4.375,4.462,4.341C33.233,13.371,35.172,11.372,35.136,8.943
			L35.136,8.943z"/>
	</g>
</g>
</svg>
