<?xml version="1.0" encoding="utf-8"?>
<!-- Generator: Adobe Illustrator 16.0.0, SVG Export Plug-In . SVG Version: 6.00 Build 0)  -->
<!DOCTYPE svg PUBLIC "-//W3C//DTD SVG 1.1//EN" "http://www.w3.org/Graphics/SVG/1.1/DTD/svg11.dtd">
<svg version="1.1" id="artifact_node" xmlns="http://www.w3.org/2000/svg" xmlns:xlink="http://www.w3.org/1999/xlink" x="0px"
	 y="0px" width="62.593px" height="20px" viewBox="-7.245 1 62.593 20" enable-background="new -7.245 1 62.593 20"
	 xml:space="preserve">
<path fill="#FFFFFF" d="M58.44,10.929c0,5.484-4.437,9.929-9.909,9.929H-0.353c-5.473,0-9.909-4.445-9.909-9.929l0,0
	C-10.261,5.445-5.825,1-0.353,1h48.883C54.003,1,58.44,5.445,58.44,10.929L58.44,10.929z"/>
<g>
	<path fill="#5E6D68" d="M19.243,12.449h-2.27l-0.688,1.266h-1.211l3.238-5.726h1.309l0.93,5.726h-1.117L19.243,12.449z
		 M19.098,11.497l-0.332-2.305l-1.383,2.305H19.098z"/>
	<path fill="#5E6D68" d="M22.473,13.715h-1.18l1.199-5.726h2.543c0.438,0,0.778,0.045,1.021,0.135s0.44,0.255,0.59,0.494
		s0.225,0.53,0.225,0.871c0,0.487-0.146,0.889-0.438,1.205s-0.733,0.513-1.324,0.588c0.151,0.136,0.293,0.313,0.426,0.535
		c0.263,0.449,0.556,1.082,0.879,1.898h-1.266c-0.102-0.322-0.301-0.826-0.598-1.512c-0.162-0.37-0.333-0.618-0.516-0.746
		c-0.112-0.075-0.307-0.113-0.586-0.113h-0.48L22.473,13.715z M23.149,10.485h0.625c0.633,0,1.053-0.038,1.26-0.113
		s0.369-0.194,0.486-0.355s0.176-0.331,0.176-0.508c0-0.208-0.084-0.364-0.254-0.469c-0.104-0.063-0.33-0.094-0.676-0.094h-1.297
		L23.149,10.485z"/>
	<path fill="#5E6D68" d="M29.395,13.715h-1.18l1-4.769h-1.68l0.199-0.957h4.512l-0.199,0.957h-1.656L29.395,13.715z"/>
	<path fill="#5E6D68" d="M31.739,13.715l1.199-5.726h1.176l-1.195,5.726H31.739z"/>
	<path fill="#5E6D68" d="M33.997,13.715l1.199-5.726h4.007L39,8.946h-2.828l-0.289,1.375h2.773l-0.199,0.957h-2.773l-0.507,2.437
		H33.997z"/>
	<path fill="#5E6D68" d="M42.208,12.449h-2.27l-0.688,1.266H38.04l3.238-5.726h1.309l0.93,5.726h-1.117L42.208,12.449z
		 M42.063,11.497l-0.332-2.305l-1.383,2.305H42.063z"/>
	<path fill="#5E6D68" d="M48.383,11.653l1.188,0.18c-0.23,0.644-0.578,1.134-1.043,1.474c-0.463,0.34-1.006,0.51-1.629,0.51
		c-0.699,0-1.248-0.211-1.643-0.633s-0.592-1.033-0.592-1.835c0-0.651,0.133-1.247,0.396-1.787c0.266-0.54,0.631-0.954,1.1-1.24
		s0.98-0.43,1.531-0.43c0.621,0,1.121,0.166,1.504,0.498s0.609,0.784,0.676,1.357l-1.129,0.109
		c-0.063-0.333-0.182-0.575-0.361-0.725c-0.178-0.149-0.416-0.225-0.713-0.225c-0.324,0-0.629,0.099-0.912,0.297
		c-0.281,0.198-0.508,0.507-0.678,0.928c-0.168,0.421-0.254,0.841-0.254,1.26c0,0.458,0.111,0.812,0.33,1.062
		c0.221,0.25,0.494,0.375,0.822,0.375c0.305,0,0.584-0.098,0.838-0.297C48.069,12.334,48.258,12.041,48.383,11.653z"/>
	<path fill="#5E6D68" d="M52.504,13.715h-1.18l1-4.769h-1.68l0.199-0.957h4.512l-0.199,0.957H53.5L52.504,13.715z"/>
</g>
<g>
	<circle opacity="0.7" fill="#136AA1" enable-background="new    " cx="3.358" cy="8.962" r="2.344"/>
	<path opacity="0.7" fill="#136AA1" enable-background="new    " d="M0.433,9.893l-0.113-0.5l-3.693,0.841
		C-3.613,9.7-4.151,9.327-4.773,9.327c-0.853,0.001-1.541,0.691-1.541,1.54c0,0.851,0.688,1.541,1.54,1.541
		c0.85,0,1.539-0.69,1.539-1.541c0-0.045-0.002-0.09-0.007-0.137L0.433,9.893z"/>
	<path opacity="0.7" fill="#136AA1" enable-background="new    " d="M1.046,7.016l-1.793-1.419c0.063-0.169,0.099-0.351,0.099-0.542
		c0-0.85-0.688-1.539-1.539-1.539c-0.851,0-1.538,0.688-1.538,1.539s0.688,1.539,1.538,1.539c0.473,0,0.894-0.214,1.175-0.549
		l1.738,1.374L1.046,7.016z"/>
	<path opacity="0.7" fill="#136AA1" enable-background="new    " d="M8.803,4.103c-0.85,0-1.539,0.688-1.539,1.539
		c0,0.217,0.046,0.423,0.125,0.609L5.547,7.218l0.238,0.455l1.887-0.99c0.28,0.306,0.683,0.498,1.131,0.498
		c0.85,0,1.539-0.688,1.539-1.539C10.341,4.791,9.651,4.103,8.803,4.103z"/>
	<path opacity="0.7" fill="#136AA1" enable-background="new    " d="M10.486,12.064c-0.453,0-0.855,0.196-1.137,0.505l-3.47-2.282
		l-0.281,0.428L9.073,13c-0.079,0.186-0.122,0.39-0.122,0.602c0,0.85,0.688,1.54,1.538,1.54c0.851,0,1.539-0.69,1.539-1.54
		S11.338,12.064,10.486,12.064z"/>
	<path opacity="0.7" fill="#136AA1" enable-background="new    " d="M0.518,16.65l1.846-4.989l-0.482-0.178l-1.844,4.984
		c-0.096-0.018-0.195-0.028-0.297-0.028c-0.85,0-1.538,0.688-1.538,1.537c0,0.85,0.688,1.539,1.538,1.539
		c0.85,0,1.54-0.687,1.54-1.539C1.281,17.411,0.973,16.917,0.518,16.65z"/>
</g>
</svg>
