<?xml version="1.0" encoding="utf-8"?>
<!-- Generator: Adobe Illustrator 16.0.0, SVG Export Plug-In . SVG Version: 6.00 Build 0)  -->
<!DOCTYPE svg PUBLIC "-//W3C//DTD SVG 1.1//EN" "http://www.w3.org/Graphics/SVG/1.1/DTD/svg11.dtd">
<svg version="1.1" id="group_node" xmlns="http://www.w3.org/2000/svg" xmlns:xlink="http://www.w3.org/1999/xlink" x="0px" y="0px"
	 width="53.868px" height="20px" viewBox="0.98 1.5 53.868 20" enable-background="new 0.98 1.5 53.868 20" xml:space="preserve">
<path fill="#FFFFFF" d="M59.982,11.43c0,5.483-4.005,9.929-8.945,9.929H6.909c-4.94,0-8.945-4.445-8.945-9.929l0,0
	c0-5.484,4.004-9.93,8.945-9.93h44.127C55.977,1.5,59.982,5.945,59.982,11.43L59.982,11.43z"/>
<g>
	<circle opacity="0.7" fill="#136AA1" enable-background="new    " cx="11.63" cy="9.771" r="2.344"/>
	<path fill="#5D6B66" d="M8.704,10.702l-0.113-0.5l-3.693,0.841c-0.241-0.534-0.778-0.907-1.401-0.907
		c-0.852,0.001-1.54,0.691-1.54,1.54c0,0.85,0.688,1.539,1.539,1.539c0.849,0,1.539-0.688,1.539-1.539
		c0-0.046-0.002-0.09-0.006-0.136L8.704,10.702z"/>
	<path fill="#5D6B66" d="M9.315,7.825L7.522,6.405c0.063-0.169,0.1-0.351,0.1-0.542c0-0.849-0.688-1.539-1.538-1.539
		c-0.851,0-1.539,0.688-1.539,1.539s0.688,1.539,1.539,1.539c0.472,0,0.895-0.214,1.176-0.549l1.737,1.374L9.315,7.825z"/>
	<path fill="#5D6B66" d="M17.073,4.912c-0.85,0-1.539,0.688-1.539,1.539c0,0.217,0.045,0.422,0.126,0.609l-1.843,0.968l0.239,0.455
		l1.887-0.99c0.28,0.306,0.683,0.498,1.131,0.498c0.849,0,1.539-0.688,1.539-1.539C18.612,5.6,17.922,4.912,17.073,4.912z"/>
	<path fill="#5D6B66" d="M18.757,12.873c-0.452,0-0.856,0.195-1.137,0.505l-3.47-2.282l-0.282,0.428l3.476,2.285
		c-0.08,0.186-0.123,0.389-0.123,0.602c0,0.85,0.688,1.539,1.539,1.539s1.539-0.689,1.539-1.539S19.608,12.873,18.757,12.873z"/>
	<path fill="#5D6B66" d="M8.789,17.459l1.846-4.988l-0.482-0.178l-1.844,4.983c-0.097-0.019-0.195-0.028-0.296-0.028
		c-0.85,0-1.539,0.688-1.539,1.538c0,0.849,0.689,1.538,1.539,1.538c0.849,0,1.539-0.687,1.539-1.538
		C9.552,18.22,9.244,17.725,8.789,17.459z"/>
</g>
<g>
	<path fill="#5E6D68" d="M28.747,11.227h2.562l-0.516,2.458c-0.302,0.194-0.672,0.36-1.111,0.496
		c-0.439,0.135-0.886,0.202-1.342,0.202c-0.708,0-1.251-0.159-1.629-0.479c-0.516-0.438-0.773-1.072-0.773-1.902
		c0-0.557,0.111-1.091,0.332-1.602c0.266-0.615,0.643-1.091,1.133-1.43c0.49-0.339,1.065-0.508,1.727-0.508
		c0.662,0,1.192,0.154,1.592,0.461c0.4,0.307,0.665,0.755,0.795,1.344l-1.098,0.125c-0.096-0.323-0.252-0.566-0.467-0.73
		s-0.485-0.246-0.811-0.246c-0.38,0-0.729,0.099-1.047,0.297c-0.318,0.198-0.566,0.504-0.746,0.918s-0.27,0.866-0.27,1.355
		c0,0.482,0.109,0.838,0.328,1.069c0.219,0.229,0.539,0.346,0.961,0.346c0.252,0,0.512-0.036,0.777-0.107
		c0.265-0.07,0.495-0.156,0.688-0.256l0.176-0.852h-1.461L28.747,11.227z"/>
	<path fill="#5E6D68" d="M32.985,14.286h-1.18l1.199-5.727h2.543c0.438,0,0.777,0.045,1.021,0.135
		c0.243,0.09,0.44,0.254,0.591,0.494c0.149,0.24,0.225,0.53,0.225,0.871c0,0.487-0.146,0.889-0.438,1.205
		c-0.293,0.316-0.734,0.512-1.324,0.588c0.15,0.135,0.293,0.314,0.426,0.536c0.263,0.447,0.556,1.08,0.879,1.897h-1.266
		c-0.103-0.323-0.302-0.827-0.599-1.513c-0.162-0.369-0.333-0.618-0.517-0.745c-0.111-0.076-0.307-0.113-0.586-0.113H33.48
		L32.985,14.286z M33.661,11.055h0.625c0.633,0,1.053-0.038,1.26-0.113c0.207-0.075,0.369-0.194,0.486-0.355
		c0.117-0.161,0.176-0.331,0.176-0.508c0-0.208-0.084-0.365-0.254-0.469c-0.104-0.063-0.33-0.094-0.676-0.094h-1.297L33.661,11.055z
		"/>
	<path fill="#5E6D68" d="M37.931,12.039c0-0.338,0.051-0.695,0.151-1.07c0.134-0.502,0.336-0.939,0.607-1.309
		s0.615-0.662,1.029-0.877c0.414-0.215,0.885-0.322,1.414-0.322c0.708,0,1.281,0.22,1.717,0.66s0.654,1.023,0.654,1.75
		c0,0.604-0.143,1.188-0.426,1.754c-0.285,0.565-0.67,1-1.156,1.306c-0.487,0.305-1.038,0.457-1.652,0.457
		c-0.534,0-0.982-0.121-1.344-0.363c-0.362-0.242-0.619-0.543-0.77-0.9C38.004,12.767,37.931,12.404,37.931,12.039z M39.095,12.017
		c0,0.393,0.12,0.723,0.358,0.987c0.239,0.265,0.556,0.398,0.945,0.398c0.318,0,0.623-0.105,0.916-0.314s0.535-0.526,0.727-0.952
		c0.192-0.427,0.287-0.841,0.287-1.245c0-0.451-0.121-0.804-0.362-1.061c-0.242-0.257-0.552-0.385-0.927-0.385
		c-0.576,0-1.043,0.268-1.403,0.805C39.275,10.787,39.095,11.375,39.095,12.017z"/>
	<path fill="#5E6D68" d="M44.981,8.559h1.176l-0.648,3.109l-0.16,0.767c-0.01,0.064-0.016,0.125-0.016,0.184
		c0,0.227,0.084,0.414,0.248,0.561c0.166,0.147,0.406,0.221,0.721,0.221c0.285,0,0.52-0.053,0.703-0.159
		c0.186-0.107,0.328-0.267,0.43-0.478c0.104-0.211,0.205-0.568,0.311-1.074l0.654-3.129h1.178l-0.652,3.133
		c-0.139,0.66-0.297,1.164-0.477,1.512c-0.182,0.349-0.453,0.633-0.816,0.853c-0.365,0.219-0.826,0.328-1.383,0.328
		c-0.668,0-1.178-0.164-1.531-0.49s-0.531-0.748-0.531-1.26c0-0.107,0.01-0.224,0.027-0.349c0.01-0.083,0.056-0.32,0.137-0.711
		L44.981,8.559z"/>
	<path fill="#5E6D68" d="M50.735,14.286h-1.18l1.199-5.727h2.328c0.414,0,0.742,0.049,0.98,0.146
		c0.24,0.097,0.434,0.259,0.572,0.484c0.141,0.225,0.213,0.495,0.213,0.808c0,0.289-0.055,0.57-0.168,0.844
		c-0.111,0.274-0.25,0.492-0.412,0.656s-0.338,0.289-0.523,0.373c-0.188,0.084-0.441,0.148-0.76,0.193
		c-0.184,0.025-0.529,0.039-1.037,0.039h-0.756L50.735,14.286z M51.387,11.153h0.363c0.623,0,1.039-0.039,1.246-0.117
		c0.209-0.078,0.373-0.203,0.492-0.375s0.18-0.361,0.18-0.566c0-0.138-0.031-0.251-0.092-0.34c-0.061-0.089-0.146-0.153-0.258-0.193
		s-0.357-0.061-0.74-0.061h-0.844L51.387,11.153z"/>
</g>
</svg>
